<?xml version="1.0" encoding="UTF-8"?>
<svg id="Layer_2" data-name="Layer 2" xmlns="http://www.w3.org/2000/svg" xmlns:xlink="http://www.w3.org/1999/xlink" viewBox="0 0 101.41 109.05">
  <defs>
    <style>
      .cls-1 {
        fill: #fff;
      }

      .cls-2 {
        fill: #4ec2c1;
      }

      .cls-2, .cls-3, .cls-4, .cls-5, .cls-6, .cls-7, .cls-8, .cls-9 {
        fill-rule: evenodd;
      }

      .cls-3 {
        fill: #7b7181;
      }

      .cls-4 {
        fill: #ffc53e;
      }

      .cls-5 {
        fill: #385fac;
      }

      .cls-6 {
        fill: #f37775;
      }

      .cls-10 {
        mask: url(#mask);
      }

      .cls-7 {
        fill: #5cba47;
      }

      .cls-8 {
        fill: #f1f0f0;
      }

      .cls-9 {
        fill: #98c6eb;
      }
    </style>
    <mask id="mask" x="0" y="0" width="101.41" height="109.05" maskUnits="userSpaceOnUse">
      <g id="mask0_407_16570" data-name="mask0 407 16570">
        <path class="cls-1" d="m50.7,0C22.7,0,0,22.7,0,50.7s22.7,50.7,50.7,50.7,50.7-22.7,50.7-50.7S78.71,0,50.7,0Z"/>
      </g>
    </mask>
  </defs>
  <g id="Layer_1-2" data-name="Layer 1">
    <path class="cls-9" d="m101.41,50.7c0,28-22.7,50.7-50.7,50.7S0,78.71,0,50.7,22.7,0,50.7,0s50.7,22.7,50.7,50.7Z"/>
    <g class="cls-10">
      <g>
        <path class="cls-8" d="m77.6,46.97v61.01c0,.89-1.16,1.35-1.8.72l-3.72-4.32-3.92,3.92c-.78.78-2.05.79-2.84.02l-4.05-3.94-3.84,3.89c-.78.79-2.06.8-2.86.02l-3.96-3.91-3.99,3.93c-.79.77-2.05.77-2.84,0l-3.99-3.93-3.97,3.92c-.79.78-2.06.78-2.85,0l-3.91-3.91-3.63,4.37c-.64.63-1.64.18-1.64-.72v-61.07h53.79Z"/>
        <path class="cls-5" d="m23.72,46.78h53.96v-3.17c0-1.12-.9-2.02-2.02-2.02H25.74c-1.12,0-2.02.9-2.02,2.02v3.17Z"/>
        <path class="cls-3" d="m66.05,63.21c.37,0,.67-.3.67-.67v-4.04c0-.37-.3-.67-.67-.67h-4.04c-.37,0-.67.3-.67.67v4.04c0,.37.3.67.67.67h4.04Z"/>
        <path class="cls-7" d="m29.51,71.22h42.02c.27,0,.49-.22.49-.49v-1.71c0-.27-.22-.49-.49-.49H29.51c-.27,0-.49.22-.49.49v1.71c0,.27.22.49.49.49Z"/>
        <path class="cls-6" d="m29.51,79.23h42.02c.27,0,.49-.22.49-.49v-1.71c0-.27-.22-.49-.49-.49H29.51c-.27,0-.49.22-.49.49v1.71c0,.27.22.49.49.49Z"/>
        <path class="cls-2" d="m29.51,87.24h42.02c.27,0,.49-.22.49-.49v-1.71c0-.27-.22-.49-.49-.49H29.51c-.27,0-.49.22-.49.49v1.71c0,.27.22.49.49.49Z"/>
        <path class="cls-4" d="m23.86,60.86h23.35v-5.58h-23.35v5.58Z"/>
      </g>
    </g>
  </g>
</svg>