<?xml version="1.0" encoding="UTF-8"?>
<svg id="Layer_2" data-name="Layer 2" xmlns="http://www.w3.org/2000/svg" xmlns:xlink="http://www.w3.org/1999/xlink" viewBox="0 0 117 117">
  <defs>
    <style>
      .cls-1 {
        fill: #99cc64;
      }

      .cls-1, .cls-2, .cls-3, .cls-4, .cls-5, .cls-6, .cls-7 {
        fill-rule: evenodd;
      }

      .cls-8 {
        fill: #fff;
      }

      .cls-2 {
        fill: #4ec2c1;
      }

      .cls-3 {
        fill: #399e47;
      }

      .cls-9 {
        fill: #ffc53e;
      }

      .cls-4 {
        fill: #ffd666;
      }

      .cls-10 {
        fill: #dad9d9;
      }

      .cls-5 {
        fill: #eb79af;
      }

      .cls-11 {
        fill: #f9ad19;
      }

      .cls-6 {
        fill: #f37775;
      }

      .cls-12 {
        mask: url(#mask);
      }

      .cls-13 {
        fill: #98c6eb;
      }

      .cls-7 {
        fill: #f1f0f0;
      }
    </style>
    <mask id="mask" x="0" y="0" width="117" height="117" maskUnits="userSpaceOnUse">
      <g id="mask0_111_5877" data-name="mask0 111 5877">
        <circle class="cls-10" cx="58.47" cy="58.47" r="50.7"/>
      </g>
    </mask>
  </defs>
  <g id="Layer_1-2" data-name="Layer 1">
    <g class="cls-12">
      <g>
        <circle class="cls-13" cx="58.5" cy="58.5" r="58.5"/>
        <path class="cls-7" d="m87.88,54.78v61.01c0,.89-1.16,1.35-1.8.72l-3.72-4.32-3.92,3.92c-.78.78-2.05.79-2.84.02l-4.05-3.94-3.84,3.89c-.78.79-2.06.8-2.86.02l-3.96-3.91-3.99,3.93c-.79.77-2.05.77-2.84,0l-3.99-3.93-3.97,3.92c-.79.78-2.06.78-2.85,0l-3.91-3.91-3.63,4.37c-.64.63-1.64.18-1.64-.72v-61.07h53.79Z"/>
        <path class="cls-5" d="m68.07,75.18h-3.14c-.39,0-.72-.32-.72-.72v-3.14c0-.39.32-.72.72-.72h3.14c.39,0,.72.32.72.72v3.14c0,.39-.32.72-.72.72Z"/>
        <path class="cls-6" d="m75.61,75.18h-3.14c-.39,0-.72-.32-.72-.72v-3.14c0-.39.32-.72.72-.72h3.14c.39,0,.72.32.72.72v3.14c0,.39-.32.72-.72.72Z"/>
        <path class="cls-2" d="m83.15,75.18h-3.14c-.39,0-.72-.32-.72-.72v-3.14c0-.39.32-.72.72-.72h3.14c.39,0,.72.32.72.72v3.14c0,.39-.32.72-.72.72Z"/>
        <path class="cls-3" d="m34.01,54.59h53.96v-3.17c0-1.12-.9-2.02-2.02-2.02h-49.92c-1.12,0-2.02.9-2.02,2.02v3.17Z"/>
        <path class="cls-11" d="m77.24,78.38h-34.91c-.66,0-1.2.51-1.2,1.14v23.15c0,.63.54,1.14,1.2,1.14h34.91c.66,0,1.2-.51,1.2-1.14v-23.15c0-.63-.54-1.14-1.2-1.14Z"/>
        <path class="cls-8" d="m42.12,78.95c-.55,0-.99.47-.99,1.06v3.12s17.78,11.01,17.78,11.01c.7.48,1.63.48,2.33,0l17.19-11.01v-3.12c0-.58-.44-1.06-.98-1.06h-35.33Z"/>
        <path class="cls-9" d="m42.12,78.38c-.55,0-.99.47-.99,1.04v3.06s17.78,10.81,17.78,10.81c.7.47,1.63.47,2.33,0l17.19-10.81v-3.06c0-.57-.44-1.04-.98-1.04h-35.33Z"/>
        <path class="cls-4" d="m33.96,59.98h23.35v-16.96h-23.35v16.96Z"/>
        <path class="cls-4" d="m66.13,46.09H25.14l20.5-20.5,20.5,20.5Z"/>
        <path class="cls-1" d="m34.15,68.67h23.35v-5.58h-23.35v5.58Z"/>
      </g>
    </g>
  </g>
</svg>